# Blender 3.5.1
# www.blender.org
mtllib test.mtl
o Cube
v -10.698982 0.000000 3.021259
v -10.698982 3.718159 3.021259
v -10.698982 0.000000 -4.008036
v -10.698982 3.718159 -4.008036
v 10.837410 0.000000 3.021259
v 10.837410 3.718159 3.021259
v 10.837410 0.000000 -4.008036
v 10.837410 3.718159 -4.008036
vn -1.0000 -0.0000 -0.0000
vn -0.0000 -0.0000 -1.0000
vn 1.0000 -0.0000 -0.0000
vn -0.0000 -0.0000 1.0000
vn -0.0000 -1.0000 -0.0000
vn -0.0000 1.0000 -0.0000
vt 0.375000 0.000000
vt 0.375000 1.000000
vt 0.125000 0.750000
vt 0.625000 0.000000
vt 0.625000 1.000000
vt 0.875000 0.750000
vt 0.125000 0.500000
vt 0.375000 0.250000
vt 0.625000 0.250000
vt 0.875000 0.500000
vt 0.375000 0.750000
vt 0.625000 0.750000
vt 0.375000 0.500000
vt 0.625000 0.500000
s 0
f 2/4/1 3/8/1 1/1/1
f 4/9/2 7/13/2 3/8/2
f 8/14/3 5/11/3 7/13/3
f 6/12/4 1/2/4 5/11/4
f 7/13/5 1/3/5 3/7/5
f 4/10/6 6/12/6 8/14/6
f 2/4/1 4/9/1 3/8/1
f 4/9/2 8/14/2 7/13/2
f 8/14/3 6/12/3 5/11/3
f 6/12/4 2/5/4 1/2/4
f 7/13/5 5/11/5 1/3/5
f 4/10/6 2/6/6 6/12/6
o Cube.001
v 9.011745 -0.084860 3.021263
v 9.011745 -0.084860 2.887061
v 10.669155 -0.084860 3.021263
v 10.669155 -0.084860 2.887061
v 9.011745 1.244781 3.021263
v 9.011745 1.244781 2.887061
v 10.669155 1.244781 3.021263
v 10.669155 1.244781 2.887061
vn -0.0000 -1.0000 -0.0000
vn 1.0000 -0.0000 -0.0000
vn -0.0000 1.0000 -0.0000
vn -1.0000 -0.0000 -0.0000
vn -0.0000 -0.0000 1.0000
vn -0.0000 -0.0000 -1.0000
vt 0.375000 0.000000
vt 0.375000 1.000000
vt 0.125000 0.750000
vt 0.625000 0.000000
vt 0.625000 1.000000
vt 0.875000 0.750000
vt 0.125000 0.500000
vt 0.375000 0.250000
vt 0.625000 0.250000
vt 0.875000 0.500000
vt 0.375000 0.750000
vt 0.625000 0.750000
vt 0.375000 0.500000
vt 0.625000 0.500000
s 0
f 10/18/7 11/22/7 9/15/7
f 12/23/8 15/27/8 11/22/8
f 16/28/9 13/25/9 15/27/9
f 14/26/10 9/16/10 13/25/10
f 15/27/11 9/17/11 11/21/11
f 12/24/12 14/26/12 16/28/12
f 10/18/7 12/23/7 11/22/7
f 12/23/8 16/28/8 15/27/8
f 16/28/9 14/26/9 13/25/9
f 14/26/10 10/19/10 9/16/10
f 15/27/11 13/25/11 9/17/11
f 12/24/12 10/20/12 14/26/12
o Cube.002
v 8.355770 -2.061462 2.064028
v 8.355770 -2.061462 2.064028
v 8.355770 0.000000 2.064028
v 8.355770 0.000000 2.064028
v 8.355770 -2.061462 3.021259
v 8.355770 -2.061462 3.021259
v 8.355770 0.000000 3.021259
v 8.355770 0.000000 3.021259
vn -1.0000 -0.0000 -0.0000
vn 1.0000 -0.0000 -0.0000
vt 0.375000 1.000000
vt 0.375000 0.000000
vt 0.125000 0.750000
vt 0.625000 0.000000
vt 0.625000 1.000000
vt 0.875000 0.750000
vt 0.125000 0.500000
vt 0.375000 0.250000
vt 0.625000 0.250000
vt 0.875000 0.500000
vt 0.375000 0.750000
vt 0.625000 0.750000
vt 0.375000 0.500000
vt 0.625000 0.500000
s 0
f 17/30/13 20/37/13 19/36/13
f 19/36/13 24/42/13 23/41/13
f 23/41/13 22/40/13 21/39/13
f 21/39/13 18/33/13 17/29/13
f 23/41/14 17/31/14 19/35/14
f 20/38/13 22/40/13 24/42/13
f 17/30/13 18/32/13 20/37/13
f 19/36/13 20/37/13 24/42/13
f 23/41/13 24/42/13 22/40/13
f 21/39/13 22/40/13 18/33/13
f 23/41/14 21/39/14 17/31/14
f 20/38/13 18/34/13 22/40/13
o Cube.003
v -10.698982 -0.092197 3.021259
v -10.698982 -0.092197 2.841503
v -9.096014 -0.092196 3.021259
v -9.096014 -0.092196 2.841503
v -10.698982 1.133152 3.021259
v -10.698982 1.133152 2.841503
v -9.096014 1.133152 3.021259
v -9.096014 1.133152 2.841503
vn -0.0000 -1.0000 -0.0000
vn 1.0000 -0.0000 -0.0000
vn -0.0000 1.0000 -0.0000
vn -1.0000 -0.0000 -0.0000
vn -0.0000 -0.0000 1.0000
vn -0.0000 -0.0000 -1.0000
vt 0.375000 0.000000
vt 0.375000 1.000000
vt 0.125000 0.750000
vt 0.625000 0.000000
vt 0.625000 1.000000
vt 0.875000 0.750000
vt 0.125000 0.500000
vt 0.375000 0.250000
vt 0.625000 0.250000
vt 0.875000 0.500000
vt 0.375000 0.750000
vt 0.625000 0.750000
vt 0.375000 0.500000
vt 0.625000 0.500000
s 0
f 26/46/15 27/50/15 25/43/15
f 28/51/16 31/55/16 27/50/16
f 32/56/17 29/53/17 31/55/17
f 30/54/18 25/44/18 29/53/18
f 31/55/19 25/45/19 27/49/19
f 28/52/20 30/54/20 32/56/20
f 26/46/15 28/51/15 27/50/15
f 28/51/16 32/56/16 31/55/16
f 32/56/17 30/54/17 29/53/17
f 30/54/18 26/47/18 25/44/18
f 31/55/19 29/53/19 25/45/19
f 28/52/20 26/48/20 30/54/20
o Cube.004
v 8.754555 0.037186 -4.008037
v 8.754555 0.037186 -4.008039
v 10.837410 0.037186 -4.008037
v 10.837410 0.037186 -4.008039
v 8.754555 1.424449 -4.008037
v 8.754555 1.424449 -4.008039
v 10.837410 1.424449 -4.008037
v 10.837410 1.424449 -4.008039
vn -0.0000 -1.0000 -0.0000
vn 1.0000 -0.0000 -0.0000
vn -0.0000 1.0000 -0.0000
vn -1.0000 -0.0000 -0.0000
vn -0.0000 -0.0000 1.0000
vn -0.0000 -0.0000 -1.0000
vt 0.375000 0.000000
vt 0.375000 1.000000
vt 0.125000 0.750000
vt 0.625000 0.000000
vt 0.625000 1.000000
vt 0.875000 0.750000
vt 0.125000 0.500000
vt 0.375000 0.250000
vt 0.625000 0.250000
vt 0.875000 0.500000
vt 0.375000 0.750000
vt 0.625000 0.750000
vt 0.375000 0.500000
vt 0.625000 0.500000
s 0
f 34/60/21 35/64/21 33/57/21
f 36/65/22 39/69/22 35/64/22
f 40/70/23 37/67/23 39/69/23
f 38/68/24 33/58/24 37/67/24
f 39/69/25 33/59/25 35/63/25
f 36/66/26 38/68/26 40/70/26
f 34/60/21 36/65/21 35/64/21
f 36/65/22 40/70/22 39/69/22
f 40/70/23 38/68/23 37/67/23
f 38/68/24 34/61/24 33/58/24
f 39/69/25 37/67/25 33/59/25
f 36/66/26 34/62/26 38/68/26
o Cube.005
v -10.619101 3.718159 3.021259
v -10.619101 7.663957 3.021259
v -10.619101 3.718159 -3.732132
v -10.619101 7.663957 -3.732132
v 6.269884 3.718159 3.021259
v 6.269884 7.663957 3.021259
v 6.269884 3.718159 -3.732132
v 6.269884 7.663957 -3.732132
vn -1.0000 -0.0000 -0.0000
vn -0.0000 -0.0000 -1.0000
vn 1.0000 -0.0000 -0.0000
vn -0.0000 -0.0000 1.0000
vn -0.0000 -1.0000 -0.0000
vn -0.0000 1.0000 -0.0000
vt 0.375000 0.000000
vt 0.375000 1.000000
vt 0.125000 0.750000
vt 0.625000 0.000000
vt 0.625000 1.000000
vt 0.875000 0.750000
vt 0.125000 0.500000
vt 0.375000 0.250000
vt 0.625000 0.250000
vt 0.875000 0.500000
vt 0.375000 0.750000
vt 0.625000 0.750000
vt 0.375000 0.500000
vt 0.625000 0.500000
s 0
f 42/74/27 43/78/27 41/71/27
f 44/79/28 47/83/28 43/78/28
f 48/84/29 45/81/29 47/83/29
f 46/82/30 41/72/30 45/81/30
f 47/83/31 41/73/31 43/77/31
f 44/80/32 46/82/32 48/84/32
f 42/74/27 44/79/27 43/78/27
f 44/79/28 48/84/28 47/83/28
f 48/84/29 46/82/29 45/81/29
f 46/82/30 42/75/30 41/72/30
f 47/83/31 45/81/31 41/73/31
f 44/80/32 42/76/32 46/82/32
o Cube.006
v -5.709548 -0.000001 -14.276485
v -5.709548 1.481259 -14.276485
v -5.709548 -0.000001 -14.322147
v -5.709548 1.481259 -14.322147
v -0.762544 -0.000001 -14.276485
v -0.762544 1.481259 -14.276485
v -0.762544 -0.000001 -14.322147
v -0.762544 1.481259 -14.322147
vn -1.0000 -0.0000 -0.0000
vn -0.0000 -0.0000 -1.0000
vn 1.0000 -0.0000 -0.0000
vn -0.0000 -0.0000 1.0000
vn -0.0000 -1.0000 -0.0000
vn -0.0000 1.0000 -0.0000
vt 0.375000 0.000000
vt 0.375000 1.000000
vt 0.125000 0.750000
vt 0.625000 0.000000
vt 0.625000 1.000000
vt 0.875000 0.750000
vt 0.125000 0.500000
vt 0.375000 0.250000
vt 0.625000 0.250000
vt 0.875000 0.500000
vt 0.375000 0.750000
vt 0.625000 0.750000
vt 0.375000 0.500000
vt 0.625000 0.500000
s 0
f 50/88/33 51/92/33 49/85/33
f 52/93/34 55/97/34 51/92/34
f 56/98/35 53/95/35 55/97/35
f 54/96/36 49/86/36 53/95/36
f 55/97/37 49/87/37 51/91/37
f 52/94/38 54/96/38 56/98/38
f 50/88/33 52/93/33 51/92/33
f 52/93/34 56/98/34 55/97/34
f 56/98/35 54/96/35 53/95/35
f 54/96/36 50/89/36 49/86/36
f 55/97/37 53/95/37 49/87/37
f 52/94/38 50/90/38 54/96/38
